<?xml version="1.0" encoding="UTF-8"?>
<svg xmlns="http://www.w3.org/2000/svg" xmlns:xlink="http://www.w3.org/1999/xlink" width="288" height="288" viewBox="0 0 288 288">
<defs>
<g>
<g id="glyph-0-0">
<path d="M 0.390625 0 L 0.390625 -8.609375 L 7.21875 -8.609375 L 7.21875 0 Z M 6.140625 -1.078125 L 6.140625 -7.53125 L 1.46875 -7.53125 L 1.46875 -1.078125 Z M 6.140625 -1.078125 "/>
</g>
<g id="glyph-0-1">
<path d="M 1.578125 -1.671875 C 1.578125 -1.367188 1.6875 -1.128906 1.90625 -0.953125 C 2.132812 -0.773438 2.398438 -0.6875 2.703125 -0.6875 C 3.078125 -0.6875 3.4375 -0.769531 3.78125 -0.9375 C 4.375 -1.226562 4.671875 -1.695312 4.671875 -2.34375 L 4.671875 -3.1875 C 4.535156 -3.113281 4.363281 -3.046875 4.15625 -2.984375 C 3.957031 -2.929688 3.757812 -2.894531 3.5625 -2.875 L 2.9375 -2.796875 C 2.550781 -2.742188 2.257812 -2.660156 2.0625 -2.546875 C 1.738281 -2.367188 1.578125 -2.078125 1.578125 -1.671875 Z M 4.140625 -3.796875 C 4.378906 -3.828125 4.539062 -3.929688 4.625 -4.109375 C 4.664062 -4.203125 4.6875 -4.335938 4.6875 -4.515625 C 4.6875 -4.867188 4.554688 -5.125 4.296875 -5.28125 C 4.046875 -5.445312 3.6875 -5.53125 3.21875 -5.53125 C 2.664062 -5.53125 2.273438 -5.382812 2.046875 -5.09375 C 1.910156 -4.925781 1.820312 -4.679688 1.78125 -4.359375 L 0.796875 -4.359375 C 0.816406 -5.128906 1.066406 -5.664062 1.546875 -5.96875 C 2.035156 -6.269531 2.597656 -6.421875 3.234375 -6.421875 C 3.972656 -6.421875 4.570312 -6.28125 5.03125 -6 C 5.488281 -5.71875 5.71875 -5.28125 5.71875 -4.6875 L 5.71875 -1.078125 C 5.71875 -0.972656 5.738281 -0.882812 5.78125 -0.8125 C 5.832031 -0.75 5.929688 -0.71875 6.078125 -0.71875 C 6.117188 -0.71875 6.164062 -0.71875 6.21875 -0.71875 C 6.28125 -0.726562 6.347656 -0.738281 6.421875 -0.75 L 6.421875 0.03125 C 6.253906 0.0703125 6.125 0.0976562 6.03125 0.109375 C 5.945312 0.128906 5.832031 0.140625 5.6875 0.140625 C 5.320312 0.140625 5.0625 0.0078125 4.90625 -0.25 C 4.8125 -0.382812 4.75 -0.578125 4.71875 -0.828125 C 4.5 -0.546875 4.1875 -0.300781 3.78125 -0.09375 C 3.382812 0.113281 2.945312 0.21875 2.46875 0.21875 C 1.882812 0.21875 1.40625 0.0390625 1.03125 -0.3125 C 0.664062 -0.664062 0.484375 -1.109375 0.484375 -1.640625 C 0.484375 -2.222656 0.664062 -2.675781 1.03125 -3 C 1.394531 -3.320312 1.867188 -3.519531 2.453125 -3.59375 Z M 3.265625 -6.421875 Z M 3.265625 -6.421875 "/>
</g>
<g id="glyph-0-2">
<path d="M 3.1875 -6.453125 C 3.894531 -6.453125 4.46875 -6.28125 4.90625 -5.9375 C 5.351562 -5.59375 5.625 -5.003906 5.71875 -4.171875 L 4.6875 -4.171875 C 4.625 -4.554688 4.484375 -4.875 4.265625 -5.125 C 4.046875 -5.382812 3.6875 -5.515625 3.1875 -5.515625 C 2.519531 -5.515625 2.039062 -5.1875 1.75 -4.53125 C 1.5625 -4.101562 1.46875 -3.578125 1.46875 -2.953125 C 1.46875 -2.328125 1.597656 -1.796875 1.859375 -1.359375 C 2.128906 -0.929688 2.550781 -0.71875 3.125 -0.71875 C 3.5625 -0.71875 3.90625 -0.851562 4.15625 -1.125 C 4.414062 -1.394531 4.59375 -1.757812 4.6875 -2.21875 L 5.71875 -2.21875 C 5.601562 -1.382812 5.3125 -0.773438 4.84375 -0.390625 C 4.375 -0.00390625 3.773438 0.1875 3.046875 0.1875 C 2.222656 0.1875 1.566406 -0.113281 1.078125 -0.71875 C 0.585938 -1.320312 0.34375 -2.070312 0.34375 -2.96875 C 0.34375 -4.070312 0.609375 -4.925781 1.140625 -5.53125 C 1.679688 -6.144531 2.363281 -6.453125 3.1875 -6.453125 Z M 3.03125 -6.421875 Z M 3.03125 -6.421875 "/>
</g>
<g id="glyph-0-3">
<path d="M 1.4375 -3.0625 C 1.4375 -2.394531 1.578125 -1.832031 1.859375 -1.375 C 2.148438 -0.925781 2.609375 -0.703125 3.234375 -0.703125 C 3.722656 -0.703125 4.125 -0.910156 4.4375 -1.328125 C 4.757812 -1.742188 4.921875 -2.347656 4.921875 -3.140625 C 4.921875 -3.929688 4.753906 -4.515625 4.421875 -4.890625 C 4.097656 -5.273438 3.703125 -5.46875 3.234375 -5.46875 C 2.703125 -5.46875 2.269531 -5.265625 1.9375 -4.859375 C 1.601562 -4.453125 1.4375 -3.851562 1.4375 -3.0625 Z M 3.03125 -6.390625 C 3.507812 -6.390625 3.910156 -6.285156 4.234375 -6.078125 C 4.421875 -5.960938 4.632812 -5.757812 4.875 -5.46875 L 4.875 -8.640625 L 5.890625 -8.640625 L 5.890625 0 L 4.9375 0 L 4.9375 -0.875 C 4.695312 -0.488281 4.40625 -0.207031 4.0625 -0.03125 C 3.726562 0.132812 3.34375 0.21875 2.90625 0.21875 C 2.207031 0.21875 1.601562 -0.0703125 1.09375 -0.65625 C 0.582031 -1.25 0.328125 -2.03125 0.328125 -3 C 0.328125 -3.914062 0.5625 -4.707031 1.03125 -5.375 C 1.5 -6.050781 2.164062 -6.390625 3.03125 -6.390625 Z M 3.03125 -6.390625 "/>
</g>
<g id="glyph-0-4">
<path d="M 3.390625 -6.421875 C 3.835938 -6.421875 4.269531 -6.316406 4.6875 -6.109375 C 5.101562 -5.898438 5.421875 -5.628906 5.640625 -5.296875 C 5.847656 -4.972656 5.988281 -4.601562 6.0625 -4.1875 C 6.125 -3.894531 6.15625 -3.429688 6.15625 -2.796875 L 1.546875 -2.796875 C 1.566406 -2.160156 1.71875 -1.648438 2 -1.265625 C 2.28125 -0.878906 2.71875 -0.6875 3.3125 -0.6875 C 3.863281 -0.6875 4.300781 -0.867188 4.625 -1.234375 C 4.8125 -1.441406 4.945312 -1.6875 5.03125 -1.96875 L 6.0625 -1.96875 C 6.039062 -1.738281 5.953125 -1.484375 5.796875 -1.203125 C 5.640625 -0.921875 5.46875 -0.6875 5.28125 -0.5 C 4.957031 -0.1875 4.554688 0.0195312 4.078125 0.125 C 3.828125 0.1875 3.539062 0.21875 3.21875 0.21875 C 2.4375 0.21875 1.773438 -0.0625 1.234375 -0.625 C 0.691406 -1.195312 0.421875 -1.992188 0.421875 -3.015625 C 0.421875 -4.023438 0.691406 -4.84375 1.234375 -5.46875 C 1.785156 -6.101562 2.503906 -6.421875 3.390625 -6.421875 Z M 5.0625 -3.640625 C 5.019531 -4.097656 4.921875 -4.460938 4.765625 -4.734375 C 4.484375 -5.242188 4.003906 -5.5 3.328125 -5.5 C 2.835938 -5.5 2.425781 -5.320312 2.09375 -4.96875 C 1.769531 -4.625 1.597656 -4.179688 1.578125 -3.640625 Z M 3.28125 -6.421875 Z M 3.28125 -6.421875 "/>
</g>
<g id="glyph-0-5">
<path d="M 0.78125 -6.28125 L 1.8125 -6.28125 L 1.8125 -5.390625 C 2.0625 -5.691406 2.289062 -5.914062 2.5 -6.0625 C 2.84375 -6.300781 3.238281 -6.421875 3.6875 -6.421875 C 4.1875 -6.421875 4.585938 -6.296875 4.890625 -6.046875 C 5.054688 -5.910156 5.210938 -5.703125 5.359375 -5.421875 C 5.585938 -5.765625 5.859375 -6.015625 6.171875 -6.171875 C 6.492188 -6.335938 6.851562 -6.421875 7.25 -6.421875 C 8.09375 -6.421875 8.664062 -6.113281 8.96875 -5.5 C 9.132812 -5.175781 9.21875 -4.734375 9.21875 -4.171875 L 9.21875 0 L 8.125 0 L 8.125 -4.359375 C 8.125 -4.773438 8.019531 -5.0625 7.8125 -5.21875 C 7.601562 -5.375 7.347656 -5.453125 7.046875 -5.453125 C 6.628906 -5.453125 6.269531 -5.3125 5.96875 -5.03125 C 5.675781 -4.757812 5.53125 -4.300781 5.53125 -3.65625 L 5.53125 0 L 4.453125 0 L 4.453125 -4.09375 C 4.453125 -4.519531 4.398438 -4.832031 4.296875 -5.03125 C 4.140625 -5.320312 3.84375 -5.46875 3.40625 -5.46875 C 3.007812 -5.46875 2.644531 -5.3125 2.3125 -5 C 1.988281 -4.695312 1.828125 -4.140625 1.828125 -3.328125 L 1.828125 0 L 0.78125 0 Z M 0.78125 -6.28125 "/>
</g>
<g id="glyph-0-6">
<path d="M 0.78125 -6.25 L 1.84375 -6.25 L 1.84375 0 L 0.78125 0 Z M 0.78125 -8.609375 L 1.84375 -8.609375 L 1.84375 -7.40625 L 0.78125 -7.40625 Z M 0.78125 -8.609375 "/>
</g>
<g id="glyph-0-7">
<path d="M 1.671875 -2.78125 C 1.703125 -2.289062 1.816406 -1.894531 2.015625 -1.59375 C 2.410156 -1.019531 3.09375 -0.734375 4.0625 -0.734375 C 4.5 -0.734375 4.898438 -0.796875 5.265625 -0.921875 C 5.960938 -1.160156 6.3125 -1.59375 6.3125 -2.21875 C 6.3125 -2.6875 6.160156 -3.019531 5.859375 -3.21875 C 5.566406 -3.414062 5.101562 -3.585938 4.46875 -3.734375 L 3.3125 -4 C 2.539062 -4.164062 2 -4.351562 1.6875 -4.5625 C 1.144531 -4.925781 0.875 -5.460938 0.875 -6.171875 C 0.875 -6.953125 1.140625 -7.585938 1.671875 -8.078125 C 2.203125 -8.578125 2.957031 -8.828125 3.9375 -8.828125 C 4.84375 -8.828125 5.609375 -8.609375 6.234375 -8.171875 C 6.867188 -7.734375 7.1875 -7.035156 7.1875 -6.078125 L 6.09375 -6.078125 C 6.03125 -6.546875 5.90625 -6.898438 5.71875 -7.140625 C 5.363281 -7.585938 4.757812 -7.8125 3.90625 -7.8125 C 3.21875 -7.8125 2.722656 -7.664062 2.421875 -7.375 C 2.117188 -7.09375 1.96875 -6.757812 1.96875 -6.375 C 1.96875 -5.957031 2.144531 -5.648438 2.5 -5.453125 C 2.726562 -5.328125 3.25 -5.171875 4.0625 -4.984375 L 5.28125 -4.703125 C 5.851562 -4.566406 6.300781 -4.382812 6.625 -4.15625 C 7.164062 -3.757812 7.4375 -3.175781 7.4375 -2.40625 C 7.4375 -1.457031 7.085938 -0.773438 6.390625 -0.359375 C 5.703125 0.046875 4.898438 0.25 3.984375 0.25 C 2.910156 0.25 2.070312 -0.0195312 1.46875 -0.5625 C 0.863281 -1.113281 0.566406 -1.851562 0.578125 -2.78125 Z M 4.03125 -8.84375 Z M 4.03125 -8.84375 "/>
</g>
<g id="glyph-0-8">
<path d="M 1.828125 -6.28125 L 1.828125 -2.109375 C 1.828125 -1.785156 1.878906 -1.523438 1.984375 -1.328125 C 2.171875 -0.953125 2.519531 -0.765625 3.03125 -0.765625 C 3.757812 -0.765625 4.257812 -1.09375 4.53125 -1.75 C 4.675781 -2.101562 4.75 -2.582031 4.75 -3.1875 L 4.75 -6.28125 L 5.796875 -6.28125 L 5.796875 0 L 4.8125 0 L 4.8125 -0.921875 C 4.675781 -0.679688 4.507812 -0.484375 4.3125 -0.328125 C 3.90625 0.00390625 3.414062 0.171875 2.84375 0.171875 C 1.945312 0.171875 1.335938 -0.128906 1.015625 -0.734375 C 0.835938 -1.046875 0.75 -1.472656 0.75 -2.015625 L 0.75 -6.28125 Z M 3.28125 -6.421875 Z M 3.28125 -6.421875 "/>
</g>
<g id="glyph-0-9">
<path d="M 0.796875 -6.28125 L 1.8125 -6.28125 L 1.8125 -5.1875 C 1.882812 -5.40625 2.082031 -5.664062 2.40625 -5.96875 C 2.726562 -6.269531 3.097656 -6.421875 3.515625 -6.421875 C 3.535156 -6.421875 3.566406 -6.414062 3.609375 -6.40625 C 3.660156 -6.40625 3.742188 -6.398438 3.859375 -6.390625 L 3.859375 -5.28125 C 3.796875 -5.289062 3.738281 -5.296875 3.6875 -5.296875 C 3.632812 -5.296875 3.578125 -5.296875 3.515625 -5.296875 C 2.984375 -5.296875 2.570312 -5.125 2.28125 -4.78125 C 2 -4.445312 1.859375 -4.054688 1.859375 -3.609375 L 1.859375 0 L 0.796875 0 Z M 0.796875 -6.28125 "/>
</g>
<g id="glyph-0-10">
<path d="M 1.296875 -6.28125 L 2.96875 -1.171875 L 4.71875 -6.28125 L 5.875 -6.28125 L 3.5 0 L 2.375 0 L 0.0625 -6.28125 Z M 1.296875 -6.28125 "/>
</g>
<g id="glyph-0-11">
<path d="M 0.796875 -8.609375 L 1.859375 -8.609375 L 1.859375 0 L 0.796875 0 Z M 0.796875 -8.609375 "/>
</g>
<g id="glyph-0-12">
<path d="M 3.421875 -0.703125 C 3.910156 -0.703125 4.316406 -0.910156 4.640625 -1.328125 C 4.972656 -1.742188 5.140625 -2.359375 5.140625 -3.171875 C 5.140625 -3.671875 5.066406 -4.101562 4.921875 -4.46875 C 4.648438 -5.15625 4.148438 -5.5 3.421875 -5.5 C 2.691406 -5.5 2.191406 -5.132812 1.921875 -4.40625 C 1.773438 -4.019531 1.703125 -3.523438 1.703125 -2.921875 C 1.703125 -2.429688 1.773438 -2.019531 1.921875 -1.6875 C 2.191406 -1.03125 2.691406 -0.703125 3.421875 -0.703125 Z M 0.6875 -6.25 L 1.71875 -6.25 L 1.71875 -5.421875 C 1.925781 -5.703125 2.15625 -5.921875 2.40625 -6.078125 C 2.757812 -6.304688 3.175781 -6.421875 3.65625 -6.421875 C 4.375 -6.421875 4.976562 -6.148438 5.46875 -5.609375 C 5.96875 -5.066406 6.21875 -4.289062 6.21875 -3.28125 C 6.21875 -1.90625 5.859375 -0.925781 5.140625 -0.34375 C 4.691406 0.03125 4.164062 0.21875 3.5625 0.21875 C 3.09375 0.21875 2.695312 0.113281 2.375 -0.09375 C 2.1875 -0.21875 1.976562 -0.421875 1.75 -0.703125 L 1.75 2.5 L 0.6875 2.5 Z M 0.6875 -6.25 "/>
</g>
<g id="glyph-0-13">
<path d="M 0.984375 -8.03125 L 2.046875 -8.03125 L 2.046875 -6.28125 L 3.046875 -6.28125 L 3.046875 -5.421875 L 2.046875 -5.421875 L 2.046875 -1.3125 C 2.046875 -1.09375 2.125 -0.945312 2.28125 -0.875 C 2.351562 -0.832031 2.488281 -0.8125 2.6875 -0.8125 C 2.738281 -0.8125 2.789062 -0.8125 2.84375 -0.8125 C 2.90625 -0.820312 2.972656 -0.828125 3.046875 -0.828125 L 3.046875 0 C 2.929688 0.03125 2.804688 0.0507812 2.671875 0.0625 C 2.546875 0.0820312 2.40625 0.09375 2.25 0.09375 C 1.757812 0.09375 1.425781 -0.03125 1.25 -0.28125 C 1.070312 -0.53125 0.984375 -0.859375 0.984375 -1.265625 L 0.984375 -5.421875 L 0.140625 -5.421875 L 0.140625 -6.28125 L 0.984375 -6.28125 Z M 0.984375 -8.03125 "/>
</g>
<g id="glyph-0-14">
<path d="M 0.3125 -0.828125 L 4.03125 -5.328125 L 0.578125 -5.328125 L 0.578125 -6.28125 L 5.4375 -6.28125 L 5.4375 -5.421875 L 1.75 -0.9375 L 5.5625 -0.9375 L 5.5625 0 L 0.3125 0 Z M 3.015625 -6.421875 Z M 3.015625 -6.421875 "/>
</g>
<g id="glyph-0-15">
<path d="M 3.265625 -0.6875 C 3.960938 -0.6875 4.441406 -0.945312 4.703125 -1.46875 C 4.960938 -2 5.09375 -2.585938 5.09375 -3.234375 C 5.09375 -3.828125 5 -4.304688 4.8125 -4.671875 C 4.507812 -5.242188 4 -5.53125 3.28125 -5.53125 C 2.632812 -5.53125 2.164062 -5.285156 1.875 -4.796875 C 1.582031 -4.304688 1.4375 -3.710938 1.4375 -3.015625 C 1.4375 -2.347656 1.582031 -1.789062 1.875 -1.34375 C 2.164062 -0.90625 2.628906 -0.6875 3.265625 -0.6875 Z M 3.3125 -6.453125 C 4.113281 -6.453125 4.789062 -6.179688 5.34375 -5.640625 C 5.90625 -5.109375 6.1875 -4.316406 6.1875 -3.265625 C 6.1875 -2.253906 5.941406 -1.414062 5.453125 -0.75 C 4.960938 -0.09375 4.203125 0.234375 3.171875 0.234375 C 2.304688 0.234375 1.617188 -0.0546875 1.109375 -0.640625 C 0.597656 -1.234375 0.34375 -2.019531 0.34375 -3 C 0.34375 -4.050781 0.609375 -4.890625 1.140625 -5.515625 C 1.679688 -6.140625 2.40625 -6.453125 3.3125 -6.453125 Z M 3.265625 -6.421875 Z M 3.265625 -6.421875 "/>
</g>
<g id="glyph-0-16">
<path d="M 0.78125 -6.28125 L 1.78125 -6.28125 L 1.78125 -5.390625 C 2.070312 -5.753906 2.382812 -6.015625 2.71875 -6.171875 C 3.050781 -6.335938 3.421875 -6.421875 3.828125 -6.421875 C 4.710938 -6.421875 5.3125 -6.109375 5.625 -5.484375 C 5.800781 -5.140625 5.890625 -4.65625 5.890625 -4.03125 L 5.890625 0 L 4.8125 0 L 4.8125 -3.953125 C 4.8125 -4.335938 4.753906 -4.644531 4.640625 -4.875 C 4.453125 -5.269531 4.113281 -5.46875 3.625 -5.46875 C 3.375 -5.46875 3.171875 -5.441406 3.015625 -5.390625 C 2.722656 -5.304688 2.46875 -5.132812 2.25 -4.875 C 2.070312 -4.664062 1.957031 -4.453125 1.90625 -4.234375 C 1.851562 -4.015625 1.828125 -3.695312 1.828125 -3.28125 L 1.828125 0 L 0.78125 0 Z M 3.25 -6.421875 Z M 3.25 -6.421875 "/>
</g>
<g id="glyph-0-17">
<path d="M 1.40625 -1.96875 C 1.4375 -1.613281 1.523438 -1.34375 1.671875 -1.15625 C 1.929688 -0.820312 2.390625 -0.65625 3.046875 -0.65625 C 3.441406 -0.65625 3.785156 -0.738281 4.078125 -0.90625 C 4.378906 -1.070312 4.53125 -1.332031 4.53125 -1.6875 C 4.53125 -1.957031 4.410156 -2.164062 4.171875 -2.3125 C 4.015625 -2.394531 3.710938 -2.492188 3.265625 -2.609375 L 2.421875 -2.8125 C 1.890625 -2.945312 1.5 -3.097656 1.25 -3.265625 C 0.789062 -3.546875 0.5625 -3.941406 0.5625 -4.453125 C 0.5625 -5.046875 0.773438 -5.523438 1.203125 -5.890625 C 1.628906 -6.253906 2.207031 -6.4375 2.9375 -6.4375 C 3.875 -6.4375 4.550781 -6.160156 4.96875 -5.609375 C 5.238281 -5.253906 5.367188 -4.875 5.359375 -4.46875 L 4.359375 -4.46875 C 4.335938 -4.707031 4.253906 -4.925781 4.109375 -5.125 C 3.867188 -5.394531 3.445312 -5.53125 2.84375 -5.53125 C 2.445312 -5.53125 2.144531 -5.453125 1.9375 -5.296875 C 1.738281 -5.148438 1.640625 -4.953125 1.640625 -4.703125 C 1.640625 -4.429688 1.773438 -4.210938 2.046875 -4.046875 C 2.203125 -3.953125 2.429688 -3.867188 2.734375 -3.796875 L 3.421875 -3.625 C 4.179688 -3.4375 4.691406 -3.257812 4.953125 -3.09375 C 5.359375 -2.820312 5.5625 -2.394531 5.5625 -1.8125 C 5.5625 -1.257812 5.347656 -0.78125 4.921875 -0.375 C 4.503906 0.03125 3.863281 0.234375 3 0.234375 C 2.0625 0.234375 1.394531 0.0234375 1 -0.390625 C 0.613281 -0.816406 0.410156 -1.34375 0.390625 -1.96875 Z M 2.953125 -6.421875 Z M 2.953125 -6.421875 "/>
</g>
<g id="glyph-0-18">
<path d="M 2.984375 -6.390625 C 3.484375 -6.390625 3.914062 -6.269531 4.28125 -6.03125 C 4.476562 -5.882812 4.679688 -5.679688 4.890625 -5.421875 L 4.890625 -6.21875 L 5.859375 -6.21875 L 5.859375 -0.515625 C 5.859375 0.285156 5.742188 0.914062 5.515625 1.375 C 5.078125 2.226562 4.25 2.65625 3.03125 2.65625 C 2.351562 2.65625 1.785156 2.503906 1.328125 2.203125 C 0.867188 1.898438 0.609375 1.425781 0.546875 0.78125 L 1.625 0.78125 C 1.675781 1.0625 1.773438 1.28125 1.921875 1.4375 C 2.160156 1.664062 2.535156 1.78125 3.046875 1.78125 C 3.859375 1.78125 4.390625 1.492188 4.640625 0.921875 C 4.785156 0.585938 4.851562 -0.0078125 4.84375 -0.875 C 4.632812 -0.550781 4.378906 -0.3125 4.078125 -0.15625 C 3.785156 0 3.394531 0.078125 2.90625 0.078125 C 2.226562 0.078125 1.632812 -0.160156 1.125 -0.640625 C 0.613281 -1.128906 0.359375 -1.929688 0.359375 -3.046875 C 0.359375 -4.097656 0.613281 -4.914062 1.125 -5.5 C 1.644531 -6.09375 2.265625 -6.390625 2.984375 -6.390625 Z M 4.890625 -3.171875 C 4.890625 -3.941406 4.726562 -4.515625 4.40625 -4.890625 C 4.082031 -5.265625 3.675781 -5.453125 3.1875 -5.453125 C 2.4375 -5.453125 1.925781 -5.101562 1.65625 -4.40625 C 1.507812 -4.039062 1.4375 -3.554688 1.4375 -2.953125 C 1.4375 -2.242188 1.578125 -1.703125 1.859375 -1.328125 C 2.148438 -0.960938 2.539062 -0.78125 3.03125 -0.78125 C 3.789062 -0.78125 4.320312 -1.125 4.625 -1.8125 C 4.800781 -2.195312 4.890625 -2.648438 4.890625 -3.171875 Z M 3.109375 -6.421875 Z M 3.109375 -6.421875 "/>
</g>
</g>
</defs>
<rect x="-28.8" y="-28.8" width="345.6" height="345.6" fill="rgb(100%, 100%, 100%)" fill-opacity="1"/>
<path fill="none" stroke-width="1.125" stroke-linecap="round" stroke-linejoin="round" stroke="rgb(0%, 0%, 0%)" stroke-opacity="1" stroke-miterlimit="10" d="M 46.417969 155.699219 L 133.9375 255.613281 "/>
<path fill="none" stroke-width="1.125" stroke-linecap="round" stroke-linejoin="round" stroke="rgb(0%, 0%, 0%)" stroke-opacity="1" stroke-miterlimit="10" d="M 241.957031 155.699219 L 154.4375 255.613281 "/>
<path fill="none" stroke-width="1.125" stroke-linecap="round" stroke-linejoin="round" stroke="rgb(0%, 0%, 0%)" stroke-opacity="1" stroke-miterlimit="10" d="M 222.703125 144 L 66.171875 144 "/>
<path fill="none" stroke-width="1.125" stroke-linecap="round" stroke-linejoin="round" stroke="rgb(0%, 0%, 0%)" stroke-opacity="1" stroke-miterlimit="10" d="M 252.203125 32.386719 L 252.203125 132.300781 "/>
<path fill="none" stroke-width="1.125" stroke-linecap="round" stroke-linejoin="round" stroke="rgb(0%, 0%, 0%)" stroke-opacity="1" stroke-miterlimit="10" d="M 144.1875 32.386719 L 144.1875 255.613281 "/>
<path fill="none" stroke-width="1.125" stroke-linecap="round" stroke-linejoin="round" stroke="rgb(0%, 0%, 0%)" stroke-opacity="1" stroke-miterlimit="10" d="M 133.9375 32.386719 L 46.417969 132.300781 "/>
<path fill-rule="nonzero" fill="rgb(0%, 0%, 0%)" fill-opacity="1" stroke-width="1.125" stroke-linecap="round" stroke-linejoin="round" stroke="rgb(0%, 0%, 0%)" stroke-opacity="1" stroke-miterlimit="10" d="M 131.394531 248.144531 L 131.464844 250.160156 L 131.925781 252.128906 L 132.761719 253.96875 L 133.9375 255.613281 L 132.464844 254.230469 L 130.75 253.160156 L 128.859375 252.441406 L 126.871094 252.109375 L 127.035156 252.183594 L 127.308594 252.15625 L 127.671875 252.03125 L 128.109375 251.804688 L 128.597656 251.496094 L 129.113281 251.121094 L 129.628906 250.695312 L 130.121094 250.238281 L 130.5625 249.777344 L 130.929688 249.335938 L 131.210938 248.929688 L 131.386719 248.585938 L 131.449219 248.320312 Z M 131.394531 248.144531 "/>
<path fill-rule="nonzero" fill="rgb(0%, 0%, 0%)" fill-opacity="1" stroke-width="1.125" stroke-linecap="round" stroke-linejoin="round" stroke="rgb(0%, 0%, 0%)" stroke-opacity="1" stroke-miterlimit="10" d="M 161.507812 252.109375 L 159.515625 252.441406 L 157.625 253.160156 L 155.910156 254.230469 L 154.4375 255.613281 L 155.613281 253.96875 L 156.449219 252.128906 L 156.910156 250.160156 L 156.980469 248.144531 L 156.925781 248.320312 L 156.988281 248.585938 L 157.164062 248.929688 L 157.445312 249.335938 L 157.8125 249.777344 L 158.253906 250.238281 L 158.746094 250.695312 L 159.261719 251.121094 L 159.777344 251.496094 L 160.265625 251.804688 L 160.703125 252.03125 L 161.066406 252.15625 L 161.339844 252.183594 Z M 161.507812 252.109375 "/>
<path fill-rule="nonzero" fill="rgb(0%, 0%, 0%)" fill-opacity="1" stroke-width="1.125" stroke-linecap="round" stroke-linejoin="round" stroke="rgb(0%, 0%, 0%)" stroke-opacity="1" stroke-miterlimit="10" d="M 73.464844 147.007812 L 71.902344 145.730469 L 70.121094 144.78125 L 68.183594 144.199219 L 66.171875 144 L 68.183594 143.800781 L 70.121094 143.21875 L 71.902344 142.269531 L 73.464844 140.992188 L 73.296875 141.066406 L 73.140625 141.289062 L 72.996094 141.648438 L 72.875 142.125 L 72.785156 142.695312 L 72.730469 143.332031 L 72.710938 144 L 72.730469 144.667969 L 72.785156 145.304688 L 72.875 145.875 L 72.996094 146.351562 L 73.140625 146.710938 L 73.296875 146.933594 Z M 73.464844 147.007812 "/>
<path fill-rule="nonzero" fill="rgb(0%, 0%, 0%)" fill-opacity="1" stroke-width="1.125" stroke-linecap="round" stroke-linejoin="round" stroke="rgb(0%, 0%, 0%)" stroke-opacity="1" stroke-miterlimit="10" d="M 255.210938 125.003906 L 253.933594 126.566406 L 252.984375 128.351562 L 252.402344 130.285156 L 252.203125 132.300781 L 252.007812 130.285156 L 251.421875 128.351562 L 250.472656 126.566406 L 249.195312 125.003906 L 249.273438 125.171875 L 249.496094 125.332031 L 249.851562 125.476562 L 250.328125 125.59375 L 250.898438 125.683594 L 251.535156 125.742188 L 252.203125 125.757812 L 252.875 125.742188 L 253.507812 125.683594 L 254.078125 125.59375 L 254.554688 125.476562 L 254.914062 125.332031 L 255.136719 125.171875 Z M 255.210938 125.003906 "/>
<path fill-rule="nonzero" fill="rgb(0%, 0%, 0%)" fill-opacity="1" stroke-width="1.125" stroke-linecap="round" stroke-linejoin="round" stroke="rgb(0%, 0%, 0%)" stroke-opacity="1" stroke-miterlimit="10" d="M 147.195312 248.316406 L 145.917969 249.882812 L 144.96875 251.664062 L 144.386719 253.601562 L 144.1875 255.613281 L 143.988281 253.601562 L 143.40625 251.664062 L 142.457031 249.882812 L 141.179688 248.316406 L 141.253906 248.484375 L 141.476562 248.644531 L 141.835938 248.789062 L 142.3125 248.910156 L 142.882812 249 L 143.519531 249.054688 L 144.1875 249.074219 L 144.855469 249.054688 L 145.492188 249 L 146.0625 248.910156 L 146.539062 248.789062 L 146.898438 248.644531 L 147.121094 248.484375 Z M 147.195312 248.316406 "/>
<path fill-rule="nonzero" fill="rgb(0%, 0%, 0%)" fill-opacity="1" stroke-width="1.125" stroke-linecap="round" stroke-linejoin="round" stroke="rgb(0%, 0%, 0%)" stroke-opacity="1" stroke-miterlimit="10" d="M 53.488281 128.792969 L 51.5 129.128906 L 49.609375 129.84375 L 47.894531 130.914062 L 46.417969 132.300781 L 47.597656 130.65625 L 48.433594 128.816406 L 48.894531 126.847656 L 48.964844 124.828125 L 48.910156 125.007812 L 48.972656 125.273438 L 49.148438 125.617188 L 49.425781 126.019531 L 49.796875 126.464844 L 50.238281 126.925781 L 50.730469 127.378906 L 51.246094 127.808594 L 51.757812 128.183594 L 52.246094 128.492188 L 52.683594 128.714844 L 53.050781 128.84375 L 53.320312 128.871094 Z M 53.488281 128.792969 "/>
<g fill="rgb(0%, 0%, 0%)" fill-opacity="1">
<use xlink:href="#glyph-0-1" x="95.6875" y="270.552734"/>
<use xlink:href="#glyph-0-2" x="102.6875" y="270.552734"/>
<use xlink:href="#glyph-0-1" x="108.6875" y="270.552734"/>
<use xlink:href="#glyph-0-3" x="115.6875" y="270.552734"/>
<use xlink:href="#glyph-0-4" x="122.6875" y="270.552734"/>
<use xlink:href="#glyph-0-5" x="129.6875" y="270.552734"/>
<use xlink:href="#glyph-0-6" x="139.6875" y="270.552734"/>
<use xlink:href="#glyph-0-2" x="142.6875" y="270.552734"/>
<use xlink:href="#glyph-0-7" x="148.6875" y="270.552734"/>
<use xlink:href="#glyph-0-8" x="156.6875" y="270.552734"/>
<use xlink:href="#glyph-0-9" x="163.6875" y="270.552734"/>
<use xlink:href="#glyph-0-10" x="167.6875" y="270.552734"/>
<use xlink:href="#glyph-0-6" x="173.6875" y="270.552734"/>
<use xlink:href="#glyph-0-10" x="176.6875" y="270.552734"/>
<use xlink:href="#glyph-0-1" x="182.6875" y="270.552734"/>
<use xlink:href="#glyph-0-11" x="189.6875" y="270.552734"/>
</g>
<g fill="rgb(0%, 0%, 0%)" fill-opacity="1">
<use xlink:href="#glyph-0-3" x="12.171875" y="146.240234"/>
<use xlink:href="#glyph-0-4" x="19.171875" y="146.240234"/>
<use xlink:href="#glyph-0-12" x="26.171875" y="146.240234"/>
<use xlink:href="#glyph-0-13" x="33.171875" y="146.240234"/>
<use xlink:href="#glyph-0-7" x="36.171875" y="146.240234"/>
<use xlink:href="#glyph-0-6" x="44.171875" y="146.240234"/>
<use xlink:href="#glyph-0-14" x="47.171875" y="146.240234"/>
<use xlink:href="#glyph-0-4" x="53.171875" y="146.240234"/>
</g>
<g fill="rgb(0%, 0%, 0%)" fill-opacity="1">
<use xlink:href="#glyph-0-3" x="228.703125" y="147.240234"/>
<use xlink:href="#glyph-0-15" x="235.703125" y="147.240234"/>
<use xlink:href="#glyph-0-5" x="242.703125" y="147.240234"/>
<use xlink:href="#glyph-0-1" x="252.703125" y="147.240234"/>
<use xlink:href="#glyph-0-6" x="259.703125" y="147.240234"/>
<use xlink:href="#glyph-0-16" x="262.703125" y="147.240234"/>
<use xlink:href="#glyph-0-17" x="269.703125" y="147.240234"/>
</g>
<g fill="rgb(0%, 0%, 0%)" fill-opacity="1">
<use xlink:href="#glyph-0-18" x="232.703125" y="22.927734"/>
<use xlink:href="#glyph-0-4" x="239.703125" y="22.927734"/>
<use xlink:href="#glyph-0-16" x="246.703125" y="22.927734"/>
<use xlink:href="#glyph-0-3" x="253.703125" y="22.927734"/>
<use xlink:href="#glyph-0-4" x="260.703125" y="22.927734"/>
<use xlink:href="#glyph-0-9" x="267.703125" y="22.927734"/>
</g>
<g fill="rgb(0%, 0%, 0%)" fill-opacity="1">
<use xlink:href="#glyph-0-12" x="122.1875" y="22.927734"/>
<use xlink:href="#glyph-0-9" x="129.1875" y="22.927734"/>
<use xlink:href="#glyph-0-4" x="133.1875" y="22.927734"/>
<use xlink:href="#glyph-0-17" x="140.1875" y="22.927734"/>
<use xlink:href="#glyph-0-13" x="146.1875" y="22.927734"/>
<use xlink:href="#glyph-0-6" x="149.1875" y="22.927734"/>
<use xlink:href="#glyph-0-18" x="152.1875" y="22.927734"/>
<use xlink:href="#glyph-0-4" x="159.1875" y="22.927734"/>
</g>
</svg>
