<?xml version="1.0" encoding="UTF-8" standalone="no"?>
<svg
   xmlns:dc="http://purl.org/dc/elements/1.1/"
   xmlns:cc="http://creativecommons.org/ns#"
   xmlns:rdf="http://www.w3.org/1999/02/22-rdf-syntax-ns#"
   xmlns:svg="http://www.w3.org/2000/svg"
   xmlns="http://www.w3.org/2000/svg"
   viewBox="0 0 570.03302 556.73798"
   height="556.73798"
   width="570.03302"
   xml:space="preserve"
   id="svg2"
   version="1.1"><metadata
     id="metadata8"><rdf:RDF><cc:Work
         rdf:about=""><dc:format>image/svg+xml</dc:format><dc:type
           rdf:resource="http://purl.org/dc/dcmitype/StillImage" /></cc:Work></rdf:RDF></metadata><defs
     id="defs6"><clipPath
       id="clipPath28"
       clipPathUnits="userSpaceOnUse"><path
         id="path26"
         d="M 0,0 H 428 V 418 H 0 Z" /></clipPath></defs><g
     transform="matrix(1.3333333,0,0,1.3333333,0,1.7918449e-5)"
     id="g10"><g
       id="g12"><text
         id="text16"
         style="font-variant:normal;font-weight:normal;font-size:20.00001335px;font-family:cmr10;-inkscape-font-specification:cmr10;writing-mode:lr-tb;fill:#000000;fill-opacity:1;fill-rule:nonzero;stroke:none"
         transform="rotate(-0.16585708,144305.64,-79193.792)"><tspan
           id="tspan14"
           y="0"
           x="0 7.2000046 15.02001 22.840015 31.70002 42.800026 53.900036 62.76004 68.280045 79.380051 84.900055">Irreducible</tspan></text>
<text
         id="text20"
         style="font-variant:normal;font-weight:normal;font-size:20.00001335px;font-family:cmr10;-inkscape-font-specification:cmr10;writing-mode:lr-tb;fill:#000000;fill-opacity:1;fill-rule:nonzero;stroke:none"
         transform="rotate(40.741672,-425.54557,233.38026)"><tspan
           id="tspan18"
           y="0"
           x="0 15.00001 20.520014 26.040016 36.040024 47.14003 63.800041 72.660049 83.760056">Alignment</tspan></text>
<g
         id="g22"><g
           id="g24" /><g
           id="g46"><g
             style="opacity:0.57295801"
             id="g44"
             clip-path="url(#clipPath28)"><g
               id="g42"><path
                 id="path30"
                 style="fill:#e9e9ff;fill-opacity:1;fill-rule:evenodd;stroke:none"
                 d="m 316.828,12.875 107.039,92.5 0.774,282.613 -107.039,-92.5 z" /><path
                 id="path32"
                 style="fill:#353564;fill-opacity:1;fill-rule:evenodd;stroke:none"
                 d="m 46.094,13.422 0.777,282.609 270.731,-0.543 -0.774,-282.613 z" /><path
                 id="path34"
                 style="fill:#afafde;fill-opacity:1;fill-rule:evenodd;stroke:none"
                 d="m 46.871,296.031 107.039,92.5 270.731,-0.543 -107.039,-92.5 z" /><path
                 id="path36"
                 style="fill:#4d4d9f;fill-opacity:1;fill-rule:evenodd;stroke:none"
                 d="m 46.094,13.422 107.043,92.5 270.73,-0.547 -107.039,-92.5 z" /><path
                 id="path38"
                 style="fill:#d7d7ff;fill-opacity:1;fill-rule:evenodd;stroke:none"
                 d="m 153.137,105.922 0.773,282.609 270.731,-0.543 -0.774,-282.613 z" /><path
                 id="path40"
                 style="fill:#8686bf;fill-opacity:1;fill-rule:evenodd;stroke:none"
                 d="m 46.094,13.422 107.043,92.5 0.773,282.609 -107.039,-92.5 z" /></g></g></g></g><g
         transform="matrix(1,-0.0492803,0.0492803,1,0,0)"
         id="g48"><path
           id="path50"
           style="fill:none;stroke:#000000;stroke-width:1.49818301;stroke-linecap:butt;stroke-linejoin:miter;stroke-miterlimit:4;stroke-dasharray:none;stroke-opacity:1"
           d="M 134.292,395.157 147.558,113.194" /></g><g
         transform="matrix(0.00222485,1,-1,0.00222485,0,0)"
         id="g52"><path
           id="path54"
           style="fill:#000000;fill-opacity:1;fill-rule:evenodd;stroke:#000000;stroke-width:1.59999704;stroke-linecap:butt;stroke-linejoin:miter;stroke-miterlimit:4;stroke-dasharray:none;stroke-opacity:1"
           d="m 121.262,-152.898 5.998,-6.002 -20.998,6 20.998,6 z" /></g><g
         transform="matrix(1,-0.0492803,0.0492803,1,0,0)"
         id="g56"><path
           id="path58"
           style="fill:none;stroke:#000000;stroke-width:1.49818301;stroke-linecap:butt;stroke-linejoin:miter;stroke-miterlimit:4;stroke-dasharray:none;stroke-opacity:1"
           d="M 139.207,395.387 32.204,297.618" /></g><g
         transform="matrix(1,0.827168,-0.827168,1,0,0)"
         id="g60"><path
           id="path62"
           style="fill:#000000;fill-opacity:1;fill-rule:evenodd;stroke:#000000;stroke-width:1.232885;stroke-linecap:butt;stroke-linejoin:miter;stroke-miterlimit:4;stroke-dasharray:none;stroke-opacity:1"
           d="m 184.777,152.752 4.624,-4.625 -16.181,4.622 16.18,4.624 z" /></g><g
         transform="matrix(1,-0.0492803,0.0492803,1,0,0)"
         id="g64"><path
           id="path66"
           style="fill:none;stroke:#000000;stroke-width:1.49818301;stroke-linecap:butt;stroke-linejoin:miter;stroke-miterlimit:4;stroke-dasharray:none;stroke-opacity:1"
           d="m 134.437,395.156 270.074,12.767" /></g><g
         transform="matrix(-1,0.00201063,-0.00201063,-1,0,0)"
         id="g68"><path
           id="path70"
           style="fill:#000000;fill-opacity:1;fill-rule:evenodd;stroke:#000000;stroke-width:1.599998;stroke-linecap:butt;stroke-linejoin:miter;stroke-miterlimit:4;stroke-dasharray:none;stroke-opacity:1"
           d="m -408.831,-388.838 6,-6.003 -21,6.001 20.999,5.999 z" /></g><text
         id="text74"
         style="font-variant:normal;font-weight:normal;font-size:20.01890755px;font-family:cmr10;-inkscape-font-specification:cmr10;writing-mode:lr-tb;fill:#000000;fill-opacity:1;fill-rule:nonzero;stroke:none"
         transform="matrix(-0.01526277,-0.99733458,0.99988352,-0.05862553,171.49526,289.22216)"><tspan
           id="tspan72"
           y="0"
           x="0 13.612857 22.481234 30.308626 38.196075 43.721294 51.608746 59.37608 68.244453 79.35495 88.223328">Persistence</tspan></text>
<text
         id="text86"
         style="font-variant:normal;font-weight:normal;font-size:14.00000286px;font-family:cmr10;-inkscape-font-specification:cmr10;writing-mode:lr-tb;fill:#000000;fill-opacity:1;fill-rule:nonzero;stroke:none"
         transform="translate(386.98003,370.40077)"><tspan
           id="tspan76"
           y="0"
           x="0 10.290002 14.154003 21.154005">Riot</tspan><tspan
           id="tspan78"
           y="-156.32722"
           x="-144.16762 -133.19162 -127.71762 -120.71761 -112.94762 -105.17761 -99.661613 -94.999611 -87.229607 -79.865608 -75.203606 -67.433601 -61.231602 -55.029602 -49.555599 -44.8936 -37.123596 -31.649597 -25.447596 -19.931595 -14.415593 -6.6455913 -1.1715902">Groups by peer pressure</tspan><tspan
           id="tspan80"
           y="-49.091583"
           x="-285.15533 -274.17932 -268.70532 -261.70532 -253.93533 -246.16533 -240.64932 -235.98732 -228.21733 -220.85332 -216.19133 -209.19131 -203.67532 -198.15932 -191.15932 -184.95732 -181.09331 -174.09331 -168.66132 -164.79732 -157.7973">Groups by association</tspan><tspan
           id="tspan82"
           y="-360.52966"
           x="-128.32307 -117.34708 -110.34707 -102.98307 -96.781067 -91.307068 -83.537064 -76.537064 -68.767059 -62.56506">Governance</tspan><tspan
           id="tspan84"
           y="-240.08231"
           x="-387.44489 -376.76288 -372.89886 -367.42487 -361.22287 -355.02087 -349.58887 -344.92688 -337.15686 -330.95486 -319.29285 -312.29285 -306.09085 -300.61685 -293.61685 -287.41486">Direct democracy</tspan></text>
</g></g></svg>